<?xml version="1.0" encoding="UTF-8" standalone="no"?>
<!DOCTYPE score-partwise PUBLIC
    "-//Recordare//DTD MusicXML 4.0 Partwise//EN"
    "http://www.musicxml.org/dtds/partwise.xsd">
<score-partwise version="4.0">
  <work>
    <work-title>Silent Night</work-title>
  </work>
  <identification>
    <creator type="arranger">Violin</creator>
    <encoding>
      <software>Gemini 1.5 Pro (via AI anntation)</software>
      <encoding-date>2024-05-16</encoding-date>
      <supports element="accidental" type="yes"/>
      <supports element="beam" type="yes"/>
      <supports element="print" attribute="new-page" type="yes" value="yes"/>
      <supports element="print" attribute="new-system" type="yes" value="yes"/>
      <supports element="stem" type="yes"/>
    </encoding>
  </identification>
  <part-list>
    <score-part id="P1">
      <part-name>Violin</part-name>
      <part-abbreviation>Vln.</part-abbreviation>
      <score-instrument id="P1-I1">
        <instrument-name>Violin</instrument-name>
      </score-instrument>
      <midi-instrument id="P1-I1">
        <midi-channel>1</midi-channel>
        <midi-program>41</midi-program>
        <volume>78.7402</volume>
        <pan>0</pan>
      </midi-instrument>
    </score-part>
  </part-list>
  <part id="P1">
    <!-- Measure 1 -->
    <measure number="1" width="250">
      <print>
        <system-layout>
          <system-margins>
            <left-margin>70.00</left-margin>
            <right-margin>0.00</right-margin>
          </system-margins>
          <top-system-distance>170.00</top-system-distance>
        </system-layout>
      </print>
      <attributes>
        <divisions>2</divisions>
        <key>
          <fifths>1</fifths>
          <mode>major</mode>
        </key>
        <time>
          <beats>3</beats>
          <beat-type>4</beat-type>
        </time>
        <clef>
          <sign>G</sign>
          <line>2</line>
        </clef>
      </attributes>
      <direction placement="below">
        <direction-type>
          <dynamics default-x="6.58" default-y="-40.00" relative-y="-25.00">
            <p/>
          </dynamics>
        </direction-type>
        <sound dynamics="54.44"/>
      </direction>
      <note default-x="94.11" default-y="-30.00">
        <pitch>
          <step>G</step>
          <octave>4</octave>
        </pitch>
        <duration>2</duration>
        <type>quarter</type>
        <stem>up</stem>
      </note>
      <note default-x="145.04" default-y="-20.00">
        <pitch>
          <step>B</step>
          <octave>4</octave>
        </pitch>
        <duration>1</duration>
        <type>eighth</type>
        <stem>down</stem>
        <beam number="1">begin</beam>
        <notations>
          <technical>
            <fingering default-x="1" default-y="6" placement="above">4</fingering>
          </technical>
        </notations>
      </note>
      <note default-x="181.19" default-y="-30.00">
        <pitch>
          <step>G</step>
          <octave>4</octave>
        </pitch>
        <duration>1</duration>
        <type>eighth</type>
        <stem>down</stem>
        <beam number="1">end</beam>
      </note>
      <note default-x="213.47" default-y="-35.00">
        <pitch>
          <step>F</step>
          <alter>1</alter>
          <octave>4</octave>
        </pitch>
        <duration>2</duration>
        <type>quarter</type>
        <stem>up</stem>
      </note>
    </measure>
    <!-- Measure 2 -->
    <measure number="2" width="150">
      <note default-x="20.86" default-y="-25.00">
        <pitch>
          <step>A</step>
          <octave>4</octave>
        </pitch>
        <duration>3</duration> <!-- Dotted quarter -->
        <type>quarter</type>
        <dot/>
        <stem>up</stem>
        <notations>
           <technical>
            <fingering default-x="1" default-y="6" placement="above">4</fingering>
          </technical>
        </notations>
      </note>
      <note default-x="73.48" default-y="-25.00">
        <pitch>
          <step>A</step>
          <octave>4</octave>
        </pitch>
        <duration>1</duration>
        <type>eighth</type>
        <stem>up</stem>
      </note>
      <note default-x="104.22" default-y="-30.00">
        <pitch>
          <step>G</step>
          <octave>4</octave>
        </pitch>
        <duration>2</duration>
        <type>quarter</type>
        <stem>up</stem>
      </note>
    </measure>
    <!-- Measure 3 -->
    <measure number="3" width="120">
      <note default-x="13.00" default-y="-20.00">
        <pitch>
          <step>B</step>
          <octave>4</octave>
        </pitch>
        <duration>4</duration>
        <type>half</type>
        <stem>down</stem>
      </note>
      <note default-x="76.38" default-y="-20.00">
        <pitch>
          <step>B</step>
          <octave>4</octave>
        </pitch>
        <duration>2</duration>
        <type>quarter</type>
        <stem>down</stem>
      </note>
    </measure>
    <!-- Measure 4 -->
    <measure number="4" width="180">
      <direction placement="above">
        <direction-type>
          <words default-y="15" font-size="10">L2</words>
        </direction-type>
      </direction>
      <note default-x="13.00" default-y="-10.00">
        <pitch>
          <step>D</step>
          <octave>5</octave>
        </pitch>
        <duration>2</duration>
        <type>quarter</type>
        <stem>down</stem>
      </note>
      <note default-x="58.88" default-y="-10.00">
        <pitch>
          <step>D</step>
          <octave>5</octave>
        </pitch>
        <duration>2</duration>
        <type>quarter</type>
        <stem>down</stem>
      </note>
      <note default-x="104.77" default-y="0.00">
        <pitch>
          <step>F</step>
          <alter>1</alter>
          <octave>5</octave>
        </pitch>
        <duration>2</duration>
        <type>quarter</type>
        <stem>down</stem>
      </note>
    </measure>
    <!-- Measure 5 -->
    <measure number="5" width="150">
      <note default-x="20.86" default-y="0.00">
        <pitch>
          <step>F</step>
          <alter>1</alter>
          <octave>5</octave>
        </pitch>
        <duration>3</duration> <!-- Dotted quarter -->
        <type>quarter</type>
        <dot/>
        <stem>down</stem>
      </note>
      <note default-x="73.48" default-y="-10.00">
        <pitch>
          <step>D</step>
          <octave>5</octave>
        </pitch>
        <duration>1</duration>
        <type>eighth</type>
        <stem>down</stem>
      </note>
      <note default-x="104.22" default-y="-20.00">
        <pitch>
          <step>B</step>
          <octave>4</octave>
        </pitch>
        <duration>2</duration>
        <type>quarter</type>
        <stem>down</stem>
      </note>
    </measure>
    <!-- Measure 6 -->
    <measure number="6" width="100">
      <note default-x="13.00" default-y="-5.00">
        <pitch>
          <step>E</step>
          <octave>5</octave>
        </pitch>
        <duration>4</duration>
        <type>half</type>
        <stem>down</stem>
      </note>
      <note>
        <rest/>
        <duration>2</duration>
        <type>quarter</type>
      </note>
    </measure>
    <!-- Measure 7 -->
    <measure number="7" width="100">
      <note default-x="13.00" default-y="-25.00">
        <pitch>
          <step>A</step>
          <octave>4</octave>
        </pitch>
        <duration>4</duration>
        <type>half</type>
        <stem>up</stem>
      </note>
      <note>
        <rest/>
        <duration>2</duration>
        <type>quarter</type>
      </note>
    </measure>
    <!-- Measure 8 -->
    <measure number="8" width="100">
      <note default-x="13.00" default-y="-30.00">
        <pitch>
          <step>G</step>
          <octave>4</octave>
        </pitch>
        <duration>4</duration>
        <type>half</type>
        <stem>up</stem>
      </note>
      <note>
        <rest/>
        <duration>2</duration>
        <type>quarter</type>
      </note>
      <barline location="right">
        <bar-style>light-light</bar-style>
      </barline>
    </measure>

    <!-- Line break indicated by measure 9 starting a new line -->
    <!-- Measure 9 -->
    <measure number="9" width="200">
      <print new-system="yes">
        <system-layout>
          <system-margins>
            <left-margin>0.00</left-margin>
            <right-margin>0.00</right-margin>
          </system-margins>
          <system-distance>150.00</system-distance>
        </system-layout>
      </print>
      <direction placement="above">
        <direction-type>
          <words default-y="15" font-size="10">L2</words>
        </direction-type>
      </direction>
      <note default-x="77.61" default-y="-5.00">
        <pitch>
          <step>E</step>
          <octave>5</octave>
        </pitch>
        <duration>2</duration>
        <type>quarter</type>
        <stem>down</stem>
      </note>
      <note default-x="114.34" default-y="-5.00">
        <pitch>
          <step>E</step>
          <octave>5</octave>
        </pitch>
        <duration>2</duration>
        <type>quarter</type>
        <stem>down</stem>
      </note>
      <note default-x="151.08" default-y="-15.00">
        <pitch>
          <step>C</step>
          <octave>5</octave>
        </pitch>
        <duration>2</duration>
        <type>quarter</type>
        <stem>down</stem>
      </note>
    </measure>
    <!-- Measure 10 -->
    <measure number="10" width="150">
      <note default-x="20.86" default-y="-10.00">
        <pitch>
          <step>D</step>
          <octave>5</octave>
        </pitch>
        <duration>3</duration> <!-- Dotted quarter -->
        <type>quarter</type>
        <dot/>
        <stem>down</stem>
      </note>
      <note default-x="73.48" default-y="-20.00">
        <pitch>
          <step>B</step>
          <octave>4</octave>
        </pitch>
        <duration>1</duration>
        <type>eighth</type>
        <stem>down</stem>
      </note>
      <note default-x="104.22" default-y="-25.00">
        <pitch>
          <step>A</step>
          <octave>4</octave>
        </pitch>
        <duration>2</duration>
        <type>quarter</type>
        <stem>up</stem>
      </note>
    </measure>
    <!-- Measure 11 -->
    <measure number="11" width="120">
      <note default-x="13.00" default-y="-15.00">
        <pitch>
          <step>C</step>
          <octave>5</octave>
        </pitch>
        <duration>4</duration>
        <type>half</type>
        <stem>down</stem>
      </note>
      <note default-x="76.38" default-y="-15.00">
        <pitch>
          <step>C</step>
          <octave>5</octave>
        </pitch>
        <duration>2</duration>
        <type>quarter</type>
        <stem>down</stem>
      </note>
    </measure>
    <!-- Measure 12 -->
    <measure number="12" width="180">
      <note default-x="13.00" default-y="0.00">
        <pitch>
          <step>F</step>
          <alter>1</alter>
          <octave>5</octave>
        </pitch>
        <duration>2</duration>
        <type>quarter</type>
        <stem>down</stem>
      </note>
      <note default-x="58.88" default-y="0.00">
        <pitch>
          <step>F</step>
          <alter>1</alter>
          <octave>5</octave>
        </pitch>
        <duration>2</duration>
        <type>quarter</type>
        <stem>down</stem>
      </note>
      <note default-x="104.77" default-y="-15.00">
        <pitch>
          <step>C</step>
          <octave>5</octave>
        </pitch>
        <duration>2</duration>
        <type>quarter</type>
        <stem>down</stem>
      </note>
    </measure>
    <!-- Measure 13 -->
    <measure number="13" width="160">
      <note default-x="20.86" default-y="-10.00">
        <pitch>
          <step>D</step>
          <octave>5</octave>
        </pitch>
        <duration>3</duration> <!-- Dotted quarter -->
        <type>quarter</type>
        <dot/>
        <stem>down</stem>
        <notations>
          <slur number="1" type="start" placement="above"/>
        </notations>
      </note>
      <note default-x="73.48" default-y="-20.00">
        <pitch>
          <step>B</step>
          <octave>4</octave>
        </pitch>
        <duration>1</duration>
        <type>eighth</type>
        <stem>down</stem>
      </note>
      <note default-x="113.22" default-y="-25.00"> <!-- Adjusted x for slur visibility -->
        <pitch>
          <step>A</step>
          <octave>4</octave>
        </pitch>
        <duration>2</duration>
        <type>quarter</type>
        <stem>up</stem>
        <notations>
          <slur number="1" type="stop"/>
        </notations>
      </note>
    </measure>
    <!-- Measure 14 -->
    <measure number="14" width="100">
      <note default-x="13.00" default-y="-30.00">
        <pitch>
          <step>G</step>
          <octave>4</octave>
        </pitch>
        <duration>4</duration>
        <type>half</type>
        <stem>up</stem>
      </note>
      <note>
        <rest/>
        <duration>2</duration>
        <type>quarter</type>
      </note>
    </measure>
    <!-- Measure 15 -->
    <measure number="15" width="180">
       <direction placement="above">
        <direction-type>
          <words default-y="15" font-size="10">L2</words>
        </direction-type>
      </direction>
      <note default-x="13.00" default-y="-10.00">
        <pitch>
          <step>D</step>
          <octave>5</octave>
        </pitch>
        <duration>2</duration>
        <type>quarter</type>
        <stem>down</stem>
      </note>
      <note default-x="58.88" default-y="-10.00">
        <pitch>
          <step>D</step>
          <octave>5</octave>
        </pitch>
        <duration>2</duration>
        <type>quarter</type>
        <stem>down</stem>
      </note>
      <note default-x="104.77" default-y="0.00">
        <pitch>
          <step>F</step>
          <alter>1</alter>
          <octave>5</octave>
        </pitch>
        <duration>2</duration>
        <type>quarter</type>
        <stem>down</stem>
      </note>
    </measure>
    <!-- Measure 16 -->
    <measure number="16" width="160">
      <note default-x="20.86" default-y="0.00">
        <pitch>
          <step>F</step>
          <alter>1</alter>
          <octave>5</octave>
        </pitch>
        <duration>3</duration> <!-- Dotted quarter -->
        <type>quarter</type>
        <dot/>
        <stem>down</stem>
      </note>
      <note default-x="73.48" default-y="-10.00">
        <pitch>
          <step>D</step>
          <octave>5</octave>
        </pitch>
        <duration>1</duration>
        <type>eighth</type>
        <stem>down</stem>
      </note>
      <note default-x="113.22" default-y="-20.00">
        <pitch>
          <step>B</step>
          <octave>4</octave>
        </pitch>
        <duration>2</duration>
        <type>quarter</type>
        <stem>down</stem>
      </note>
      <barline location="right">
        <bar-style>light-light</bar-style>
      </barline>
    </measure>

    <!-- Line break indicated by measure 17 starting a new line -->
    <!-- Measure 17 -->
    <measure number="17" width="150">
      <print new-system="yes">
        <system-layout>
          <system-margins>
            <left-margin>0.00</left-margin>
            <right-margin>0.00</right-margin>
          </system-margins>
          <system-distance>150.00</system-distance>
        </system-layout>
      </print>
      <direction placement="below">
        <direction-type>
          <dynamics default-x="6.58" default-y="-40.00" relative-y="-25.00">
            <mf/>
          </dynamics>
        </direction-type>
        <sound dynamics="71.11"/>
      </direction>
      <direction placement="above">
        <direction-type>
          <words default-y="15" font-size="10">L1</words>
        </direction-type>
      </direction>
      <note default-x="77.61" default-y="-5.00">
        <pitch>
          <step>E</step>
          <octave>5</octave>
        </pitch>
        <duration>4</duration>
        <type>half</type>
        <stem>down</stem>
      </note>
      <note default-x="116.38" default-y="-5.00"> <!-- Added filler for space, maybe this is a rest -->
         <rest/>
         <duration>2</duration>
         <type>quarter</type>
      </note>
    </measure>
    <!-- Measure 18 -->
    <measure number="18" width="180">
      <note default-x="13.00" default-y="5.00">
        <pitch>
          <step>G</step>
          <octave>5</octave>
        </pitch>
        <duration>2</duration>
        <type>quarter</type>
        <stem>down</stem>
      </note>
      <note default-x="58.88" default-y="5.00">
        <pitch>
          <step>G</step>
          <octave>5</octave>
        </pitch>
        <duration>2</duration>
        <type>quarter</type>
        <stem>down</stem>
      </note>
      <note default-x="104.77" default-y="-5.00">
        <pitch>
          <step>E</step>
          <octave>5</octave>
        </pitch>
        <duration>2</duration>
        <type>quarter</type>
        <stem>down</stem>
      </note>
    </measure>
    <!-- Measure 19 -->
    <measure number="19" width="150">
      <note default-x="20.86" default-y="-10.00">
        <pitch>
          <step>D</step>
          <octave>5</octave>
        </pitch>
        <duration>3</duration> <!-- Dotted quarter -->
        <type>quarter</type>
        <dot/>
        <stem>down</stem>
      </note>
      <note default-x="73.48" default-y="-20.00">
        <pitch>
          <step>B</step>
          <octave>4</octave>
        </pitch>
        <duration>1</duration>
        <type>eighth</type>
        <stem>down</stem>
      </note>
      <note default-x="104.22" default-y="-25.00">
        <pitch>
          <step>A</step>
          <octave>4</octave>
        </pitch>
        <duration>2</duration>
        <type>quarter</type>
        <stem>up</stem>
      </note>
    </measure>
    <!-- Measure 20 -->
    <measure number="20" width="100">
      <note default-x="13.00" default-y="-30.00">
        <pitch>
          <step>G</step>
          <octave>4</octave>
        </pitch>
        <duration>4</duration>
        <type>half</type>
        <stem>up</stem>
      </note>
       <note>
        <rest/>
        <duration>2</duration>
        <type>quarter</type>
      </note>
    </measure>
    <!-- Measure 21 -->
    <measure number="21" width="150">
      <direction placement="below">
        <direction-type>
          <dynamics default-x="6.58" default-y="-40.00" relative-y="-25.00">
            <p/>
          </dynamics>
        </direction-type>
        <sound dynamics="54.44"/>
      </direction>
       <direction placement="above">
        <direction-type>
          <words default-y="15" font-size="10">L2</words>
        </direction-type>
      </direction>
      <note default-x="13.00" default-y="-10.00">
        <pitch>
          <step>D</step>
          <octave>5</octave>
        </pitch>
        <duration>2</duration>
        <type>quarter</type>
        <stem>down</stem>
      </note>
      <note default-x="58.88" default-y="-10.00">
        <pitch>
          <step>D</step>
          <octave>5</octave>
        </pitch>
        <duration>2</duration>
        <type>quarter</type>
        <stem>down</stem>
      </note>
      <note default-x="104.77" default-y="5.00"> <!-- D6 in image is F#5 here for key -->
        <pitch>
          <step>G</step> <!-- Changed from D6 to G5, based on the 4 above it in L2 typically being G on E string -->
          <octave>5</octave>
        </pitch>
        <duration>2</duration>
        <type>quarter</type>
        <stem>down</stem>
        <notations>
          <technical>
            <fingering default-x="1" default-y="6" placement="above">4</fingering>
          </technical>
        </notations>
      </note>
    </measure>
    <!-- Measure 22 -->
    <measure number="22" width="100">
      <note default-x="13.00" default-y="0.00"> <!-- D6 dotted half in image; interpreting as F#5 for key context -->
        <pitch>
          <step>F</step>
          <alter>1</alter>
          <octave>5</octave>
        </pitch>
        <duration>4</duration> <!-- Changed to half note to fit the '4' fingering on next measure start -->
        <type>half</type>
        <stem>down</stem>
      </note>
      <note>
        <rest/>
        <duration>2</duration>
        <type>quarter</type>
      </note>
    </measure>
    <!-- Measure 23 -->
    <measure number="23" width="150">
       <note default-x="20.86" default-y="0.00"> <!-- D6 dotted quarter in image, interpreted F#5 -->
        <pitch>
          <step>F</step>
          <alter>1</alter>
          <octave>5</octave>
        </pitch>
        <duration>3</duration>
        <type>quarter</type>
        <dot/>
        <stem>down</stem>
      </note>
      <note default-x="73.48" default-y="-10.00"> <!-- B5 eighth -->
        <pitch>
          <step>D</step>
          <octave>5</octave>
        </pitch>
        <duration>1</duration>
        <type>eighth</type>
        <stem>down</stem>
      </note>
      <note default-x="104.22" default-y="-20.00"> <!-- G5 quarter -->
        <pitch>
          <step>B</step>
          <octave>4</octave>
        </pitch>
        <duration>2</duration>
        <type>quarter</type>
        <stem>down</stem>
      </note>
    </measure>
    <!-- Measure 24 -->
    <measure number="24" width="120">
      <note default-x="13.00" default-y="-30.00"> <!-- G5 dotted half -->
        <pitch>
          <step>G</step>
          <octave>4</octave>
        </pitch>
        <duration>6</duration>
        <type>dotted-half</type>
        <stem>up</stem>
        <notations>
          <technical>
            <fingering default-x="1" default-y="6" placement="above">3</fingering>
          </technical>
        </notations>
      </note>
      <barline location="right">
        <bar-style>light-heavy</bar-style>
      </barline>
    </measure>
  </part>
</score-partwise>